# xmcd
#
# Track frame offsets:
#	150
#	12414
#	25044
#	36399
#	47936
#	59004
#	68579
#	82286
#	93195
#	106859
#
# Disc length: 1580
#
# Revision: 2
# Processed by: cddbd v1.5.1PL0 Copyright (c) Steve Scherf et al.
# Submitted via: dBpowerAMP V4.0
# Normalized: r0:TRMNUM;r1:TDELIM( - )
#
DISCID=82062a0a
DTITLE=Various Artist - Good Old Country - Country Love Songs
DYEAR=1900
DGENRE=
TTITLE0=Lynn Anderson - How Can I Unlove You
TTITLE1=Johnny Paycheck - Love Is A Good Thing
TTITLE2=Kitty Wells - Heartbreak USA
TTITLE3=Wanda Jackson - In The Middle Of A Heartache
TTITLE4=Don Gibson - I Can Mend Your Broken Heart
TTITLE5=Bonnie Guitar - A Woman In Love
TTITLE6=David Houston - Where Love Used To Live
TTITLE7=Hank Locklin - Send Me The Pillow That You Dream On
TTITLE8=Lee Greenwood - Don't Underestimate My Love For You
TTITLE9=Skeeter Davis - [I Can't Help You] I'm Falling Too
EXTD=
EXTT0=
EXTT1=
EXTT2=
EXTT3=
EXTT4=
EXTT5=
EXTT6=
EXTT7=
EXTT8=
EXTT9=
PLAYORDER=
